<svg version="1.2" xmlns="http://www.w3.org/2000/svg" viewBox="0 0 204 37" width="204" height="37">
	<title>logo-svg</title>
	<style>
		.s0 { fill: #f6a000 } 
		.s1 { fill: none } 
	</style>
	<g id="XMLID_53_">
		<path id="XMLID_72_" class="s0" d="m47.3 23.8c0 4.6 3.7 8.3 8.3 8.3 2.4 0 4.6-1 6.2-2.8l2.8 2.5c-2.3 2.6-5.6 4-9 4-6.6 0-12-5.4-12-12 0-6.6 5.4-12 12-12 3.4 0 6.7 1.4 9 4l-2.8 2.5c-1.6-1.8-3.8-2.8-6.2-2.8-4.6 0-8.3 3.7-8.3 8.3z"/>
		<path id="XMLID_71_" class="s0" d="m109.9 23.8c0-6.6 5.4-12 12-12 3.4 0 6.7 1.4 8.9 4l-2.7 2.5c-1.6-1.8-3.9-2.8-6.2-2.8-4.6 0-8.3 3.7-8.3 8.3 0 4.6 3.7 8.3 8.3 8.3 2.4 0 4.6-1 6.2-2.8l2.7 2.5c-2.2 2.5-5.5 4-8.9 4-6.6 0-12-5.4-12-12z"/>
		<path id="XMLID_70_" class="s0" d="m95.1 2h3.7v33.2h-3.7z"/>
		<path id="XMLID_69_" class="s0" d="m102.5 2h3.7v33.2h-3.7z"/>
		<path id="XMLID_66_" fill-rule="evenodd" class="s0" d="m145.9 35.8c-6.7 0-12-5.4-12-12 0-6.6 5.3-12 12-12 3.2 0 6.1 1.3 8.3 3.3v-2.7h3.7v22.8h-3.7v-2.8c-2.2 2.1-5.1 3.4-8.3 3.4zm8.3-12c0-4.6-3.7-8.3-8.3-8.3-4.6 0-8.4 3.7-8.4 8.3 0 4.6 3.8 8.3 8.4 8.3 4.6 0 8.3-3.7 8.3-8.3z"/>
		<path id="XMLID_63_" fill-rule="evenodd" class="s0" d="m174.4 23.8c0-6.6 5.4-12 12-12 3.2 0 6.2 1.3 8.3 3.4v-13.2h3.7v33.2h-3.7v-2.7c-2.1 2-5.1 3.3-8.3 3.3-6.6 0-12-5.4-12-12zm20.3 0c0-4.6-3.7-8.3-8.3-8.3-4.6 0-8.3 3.7-8.3 8.3 0 4.6 3.7 8.3 8.3 8.3 4.6 0 8.3-3.7 8.3-8.3z"/>
		<path id="XMLID_62_" class="s0" d="m165.2 35.2h-3.7v-22.8h3.7v1.9q2.9-2.5 7.4-2.5v3.7q-3.4 0-5.3 1.9c-1.6 1.6-2 3.9-2.1 5z"/>
		<path id="XMLID_59_" fill-rule="evenodd" class="s0" d="m71.3 23.8c0 4.6 3.7 8.3 8.3 8.3 3.4 0 6.5-2 7.7-5.2l3.5 1.3c-1.9 4.6-6.2 7.6-11.2 7.6-6.6 0-12-5.4-12-12 0-6.6 5.4-12 12-12 6.6 0 12 5.4 12 12zm0.9-3.7h14.9c-1.4-2.8-4.2-4.6-7.5-4.6-3.2 0-6.1 1.8-7.4 4.6z"/>
	</g>
	<g id="Layer">
		<path id="Layer" class="s1" d="m50.5 27.5c-1.1 0-1.9-0.8-1.9-1.9v-13.3c0-1 0.8-1.9 1.9-1.9 1 0 1.8 0.9 1.8 1.9v11.8h6.9q0.3 0 0.7 0.1 0.3 0.2 0.5 0.4 0.2 0.2 0.4 0.6 0.1 0.3 0.1 0.6 0 0.3-0.1 0.6-0.2 0.4-0.4 0.6-0.2 0.2-0.5 0.4-0.4 0.1-0.7 0.1c0 0-8.7 0-8.7 0zm18-13.1c2 0 3.5 0.5 4.4 1.5 1 0.9 1.4 2.3 1.4 4.1v5.9c0 1-0.8 1.7-1.8 1.7-1 0-1.8-0.7-1.8-1.5-0.8 1-2.1 1.6-3.9 1.6-2.4 0-4.4-1.4-4.4-3.9v-0.1c0-2.8 2.1-4.1 5.2-4.1q0.4 0 0.8 0 0.4 0.1 0.8 0.1 0.4 0.1 0.8 0.2 0.4 0.1 0.8 0.2v-0.2c0-1.5-1-2.4-2.8-2.4q-0.3 0-0.6 0.1-0.4 0-0.7 0-0.3 0.1-0.6 0.1-0.3 0.1-0.6 0.2-0.1 0-0.2 0 0 0.1-0.1 0.1-0.1 0-0.1 0-0.1 0-0.2 0c-0.8 0-1.5-0.6-1.5-1.5 0-0.6 0.4-1.2 1-1.4 1.2-0.5 2.4-0.7 4.1-0.7zm2.3 7.9v0.6 0.2c-0.1 1.2-1.1 2-2.7 2.1h-0.2 0.1c-1.2 0-2.1-0.6-2.1-1.6 0-1.2 1-1.8 2.6-1.8 0.9 0 1.7 0.2 2.3 0.5zm8.5 5.3c-1 0-1.8-0.8-1.8-1.8v-9.6c0-0.4 0.2-0.9 0.5-1.3 0.3-0.3 0.8-0.5 1.3-0.5 0.5 0 0.9 0.2 1.3 0.5 0.3 0.4 0.5 0.9 0.5 1.3v0.6c0.6-1.2 1.4-2.4 2.5-2.4 1.1 0 1.8 0.8 1.8 1.8 0 1-0.6 1.5-1.4 1.7-1.8 0.4-2.9 1.9-2.9 4.5v3.4c0 1-0.8 1.8-1.8 1.8zm13-13.2c2 0 3.5 0.5 4.4 1.5 0.9 0.9 1.4 2.3 1.4 4.1v5.9c0 1-0.8 1.7-1.8 1.7-1.1 0-1.8-0.7-1.8-1.5-0.9 1-2.1 1.6-3.9 1.6-2.4 0-4.4-1.4-4.4-3.9v-0.1c0-2.8 2.1-4.1 5.2-4.1q0.4 0 0.8 0 0.4 0.1 0.8 0.1 0.4 0.1 0.8 0.2 0.4 0.1 0.8 0.2v-0.2c0-1.5-1-2.4-2.8-2.4q-0.3 0-0.7 0.1-0.3 0-0.6 0-0.3 0.1-0.6 0.1-0.3 0.1-0.7 0.2 0 0-0.1 0-0.1 0.1-0.1 0.1-0.1 0-0.2 0 0 0-0.1 0c-0.8 0-1.5-0.6-1.5-1.5 0-0.6 0.4-1.2 1-1.4 1.1-0.5 2.4-0.7 4.1-0.7zm2.3 7.9v0.6c0 1.4-1.2 2.3-2.9 2.3-1.2 0-2-0.6-2-1.6 0-1.2 1-1.8 2.6-1.8 0.9 0 1.7 0.2 2.3 0.5zm11.8 5.5h-0.2c-1 0-1.6-0.7-2-1.6l-4-9.2c-0.1-0.2-0.2-0.5-0.2-0.9 0-0.8 0.8-1.7 1.8-1.7 1 0 1.5 0.6 1.8 1.3l2.8 7.5 2.8-7.5c0.2-0.7 0.7-1.3 1.7-1.3q0.3 0 0.7 0.1 0.3 0.2 0.5 0.4 0.3 0.3 0.4 0.6 0.2 0.3 0.2 0.6c0 0.4-0.2 0.7-0.2 0.9l-4 9.2c-0.4 0.9-1.1 1.6-2.1 1.6zm14-13.5c4.3 0 6.2 3.6 6.2 6.2 0 1.1-0.7 1.8-1.7 1.8h-7.2c0.3 1.7 1.5 2.5 3.1 2.5q0.4 0 0.7 0 0.4-0.1 0.7-0.2 0.3-0.1 0.6-0.3 0.3-0.1 0.6-0.3 0.1-0.1 0.2-0.2 0.1 0 0.2-0.1 0.2 0 0.3 0 0.1 0 0.2 0c0.8 0 1.4 0.6 1.4 1.4 0 0.5-0.2 0.9-0.4 1.1-1.2 1-2.6 1.6-4.5 1.6-3.9 0-6.8-2.7-6.8-6.7v-0.1c0-3.6 2.6-6.7 6.4-6.7zm2.7 5.7h-5.5c0.3-1.7 1.3-2.7 2.8-2.7 1.6 0 2.5 1.1 2.7 2.7zm8.3 7.6c-1 0-1.8-0.8-1.8-1.8v-14.2c0-0.5 0.2-1 0.5-1.3 0.4-0.4 0.9-0.6 1.3-0.6 0.5 0 1 0.2 1.3 0.6 0.4 0.3 0.6 0.8 0.6 1.3v14.2c0 1-0.8 1.8-1.9 1.8q0 0 0 0zm14.8 0c-1 0-1.8-0.8-1.8-1.8v-13.4c0-1.1 0.8-1.9 1.8-1.9h0.4c0.9 0 1.4 0.4 1.9 1.1l7.2 9.4v-8.7c0-0.5 0.2-1 0.5-1.3 0.4-0.4 0.8-0.6 1.3-0.6 0.5 0 1 0.2 1.3 0.6 0.4 0.3 0.6 0.8 0.6 1.3v13.4c0 1.1-0.9 1.9-1.9 1.9h-0.1c-0.9 0-1.4-0.4-1.9-1.1l-7.5-9.8v9.1c0 1-0.8 1.8-1.8 1.8q0 0 0 0zm23.2-13.3c4 0 7 3 7 6.7 0 3.8-3 6.8-7 6.8-4 0-7-3-7-6.7v-0.1c0-3.7 3-6.7 7-6.7zm3.4 6.7v0.1c0 1.9-1.3 3.5-3.4 3.5-2 0-3.4-1.6-3.4-3.6 0-1.9 1.3-3.5 3.4-3.5 2 0 3.4 1.6 3.4 3.5zm11.2 6.8c-1 0-1.7-0.7-2.1-1.6l-3.9-9.2c-0.1-0.2-0.2-0.5-0.2-0.9 0-0.8 0.8-1.7 1.7-1.7 1 0 1.6 0.6 1.8 1.3l2.8 7.5 2.8-7.5c0.3-0.7 0.8-1.3 1.7-1.3q0.4 0 0.7 0.1 0.3 0.2 0.6 0.4 0.2 0.3 0.4 0.6 0.1 0.3 0.1 0.6c0 0.4-0.1 0.7-0.2 0.9l-3.9 9.2c-0.5 0.9-1.1 1.6-2.1 1.6zm13.9-13.4c2 0 3.5 0.5 4.4 1.5 1 0.9 1.4 2.3 1.4 4.1v5.9c0 1-0.8 1.7-1.8 1.7-1 0-1.7-0.7-1.7-1.5-0.9 1-2.2 1.6-4 1.6-2.4 0-4.4-1.4-4.4-3.9v-0.1c0-2.8 2.2-4.1 5.2-4.1q0.4 0 0.8 0 0.4 0.1 0.8 0.1 0.4 0.1 0.8 0.2 0.4 0.1 0.8 0.2v-0.2c0-1.5-1-2.4-2.8-2.4q-0.3 0-0.6 0.1-0.4 0-0.7 0-0.3 0.1-0.6 0.1-0.3 0.1-0.6 0.2-0.1 0-0.2 0 0 0.1-0.1 0.1-0.1 0-0.1 0-0.1 0-0.2 0c-0.8 0-1.5-0.6-1.5-1.5 0-0.6 0.4-1.2 1-1.4 1.2-0.5 2.4-0.7 4.1-0.7zm2.3 7.9v0.6c0 1.4-1.1 2.3-2.8 2.3-1.2 0-2-0.6-2-1.6 0-1.2 0.9-1.8 2.5-1.8 0.9 0 1.7 0.2 2.3 0.5z"/>
		<g id="XMLID_54_">
			<path id="XMLID_58_" class="s0" d="m33.4 1v4.4c-15.8 0-28.7 13-29.1 29h-4.3c0.3-18.5 15.2-33.4 33.4-33.4z"/>
			<path id="XMLID_57_" class="s0" d="m33.4 8.5v4.4c-11.8 0-21.4 9.6-21.7 21.5h-4.3c0.3-14.4 11.8-25.9 26-25.9z"/>
			<path id="XMLID_56_" class="s0" d="m33.4 16v4.4c-7.7 0-14 6.2-14.4 14h-4.3c0.3-10.2 8.6-18.4 18.7-18.4z"/>
			<path id="XMLID_55_" class="s0" d="m33.4 23.5v4.4c-3.7 0-6.7 2.8-7 6.5h-4.3c0.3-6.1 5.2-10.9 11.3-10.9z"/>
		</g>
	</g>
</svg>